<svg version="1.1" xmlns="http://www.w3.org/2000/svg" xmlns:xlink="http://www.w3.org/1999/xlink" width="435.59895" height="131.62436" viewBox="0,0,435.59895,131.62436"><g transform="translate(-4.53137,-99.96532)"><g data-paper-data="{&quot;isPaintingLayer&quot;:true}" fill-rule="nonzero" stroke="#000000" stroke-width="2" stroke-linecap="round" stroke-linejoin="miter" stroke-miterlimit="10" stroke-dasharray="" stroke-dashoffset="0" style="mix-blend-mode: normal"><path d="M47.66528,101.34495l36.6538,26.31555l-32.89444,-0.46992l-20.6765,31.01476l26.78547,31.01476l14.09762,-23.96595l-13.6277,-11.27809l35.71396,10.80817l-25.84563,56.86039l-62.02951,-65.31896z" fill="#82ff66"/><path d="M110.25,116l-27,108.5l27.5,-49.5l15,-0.5l24.5,50.5z" fill="#82ff66"/><path d="M110.25,147l-3.5,20.5l11.5,-2z" fill="#ffffff"/><path d="M126.75,115l8.5,54.5l6,-29.5l8,12l5.5,-15l12.5,23.5l-16,-54l-5,24z" fill="#82ff66"/><path d="M181.75,106l-8.5,109.5l35,-29l-24.5,10.5l3,-23.5l29,-21l-25.5,5l2.5,-28.5l27,-19z" fill="#82ff66"/><path d="M278.25,109l-26.5,87l29.5,13.5l30.5,-25.5z" fill="#82ff66"/><path d="M275.25,146.5l-5.5,34l7,7l21,-11z" fill="#ffffff"/><path d="M318.75,183l-24.5,-69.5l32.5,56l14.5,-57.5l-8.5,86z" fill="#82ff66"/><path d="M349.5,121.5l-8,76l41,-24l-25,3.5v-12.5l26.5,-17l-25,0.5l0.5,-15l25.5,-21z" fill="#82ff66"/><path d="M402,156l-11.5,26.5l8,-66.5l11,-8l27.5,19l2,17.5l-28,-2l20,38.5z" fill="#82ff66"/><path d="M407,123.5l1.5,5.5l22,6l-5.5,-8z" fill="#ffffff"/></g></g></svg>